<svg width="81" height="16" viewBox="0 0 81 16" fill="none" xmlns="http://www.w3.org/2000/svg">
<path d="M7.4834 6.14551L7.5957 6.49121H11.1426L8.56738 8.3623L8.27344 8.57617L8.38574 8.92188L9.36914 11.9492L6.79395 10.0781L6.5 9.86426L6.20605 10.0781L3.62988 11.9492L4.61426 8.92188L4.72656 8.57617L4.43262 8.3623L1.85742 6.49121H5.4043L5.5166 6.14551L6.5 3.11816L7.4834 6.14551Z" stroke="white"/>
<path d="M23.4834 6.14551L23.5957 6.49121H27.1426L24.5674 8.3623L24.2734 8.57617L24.3857 8.92188L25.3691 11.9492L22.7939 10.0781L22.5 9.86426L22.2061 10.0781L19.6299 11.9492L20.6143 8.92188L20.7266 8.57617L20.4326 8.3623L17.8574 6.49121H21.4043L21.5166 6.14551L22.5 3.11816L23.4834 6.14551Z" fill="white" fill-opacity="0.09" stroke="white"/>
<path d="M39.4834 6.14551L39.5957 6.49121H43.1426L40.5674 8.3623L40.2734 8.57617L40.3857 8.92188L41.3691 11.9492L38.7939 10.0781L38.5 9.86426L38.2061 10.0781L35.6299 11.9492L36.6143 8.92188L36.7266 8.57617L36.4326 8.3623L33.8574 6.49121H37.4043L37.5166 6.14551L38.5 3.11816L39.4834 6.14551Z" stroke="white"/>
<path d="M55.4834 6.14551L55.5957 6.49121H59.1426L56.5674 8.3623L56.2734 8.57617L56.3857 8.92188L57.3691 11.9492L54.7939 10.0781L54.5 9.86426L54.2061 10.0781L51.6299 11.9492L52.6143 8.92188L52.7266 8.57617L52.4326 8.3623L49.8574 6.49121H53.4043L53.5166 6.14551L54.5 3.11816L55.4834 6.14551Z" stroke="white"/>
<path d="M71.4834 6.14551L71.5957 6.49121H75.1426L72.5674 8.3623L72.2734 8.57617L72.3857 8.92188L73.3691 11.9492L70.7939 10.0781L70.5 9.86426L70.2061 10.0781L67.6299 11.9492L68.6143 8.92188L68.7266 8.57617L68.4326 8.3623L65.8574 6.49121H69.4043L69.5166 6.14551L70.5 3.11816L71.4834 6.14551Z" stroke="white"/>
</svg>
